<?xml version="1.0" encoding="UTF-8"?>
<svg width="184px" height="181px" viewBox="0 0 184 181" version="1.1" xmlns="http://www.w3.org/2000/svg" xmlns:xlink="http://www.w3.org/1999/xlink">
    <!-- Generator: Sketch 51.3 (57544) - http://www.bohemiancoding.com/sketch -->
    <title>Group 26</title>
    <desc>Created with Sketch.</desc>
    <defs>
        <path d="M21.862,1.941 C17.943,-0.785 13.503,1.941 13.503,1.941 C8.263,5.369 4.386,6.826 1.526,6.999 C0.848,9.396 0.612,12.423 1.769,15.797 C7.64,14.536 11.839,10.287 13.665,8.107 C14.321,7.322 15.485,7.186 16.289,7.82 C17.104,8.464 17.897,9.347 17.753,10.275 C17.47,12.107 19.595,12.689 19.755,12.025 C19.916,11.361 19.028,7.423 19.028,7.423 C19.028,7.423 23.279,11.697 24.938,13.339 C26.597,14.982 28.684,13.339 28.684,13.339 C28.684,13.339 25.781,4.667 21.862,1.941" id="path-1"></path>
        <path d="M2.819,5.03 L2.922,5.032 L47.678,4.983 C48.784,4.982 49.68,4.084 49.679,2.978 C49.678,1.871 48.777,0.957 47.673,0.977 L2.917,1.025 C1.811,1.026 0.915,1.924 0.916,3.031 C0.917,4.103 1.76,4.978 2.819,5.03" id="path-3"></path>
        <linearGradient x1="-11.6707318%" y1="-193.291129%" x2="61.1888108%" y2="94.0497945%" id="linearGradient-5">
            <stop stop-color="#29316B" offset="0%"></stop>
            <stop stop-color="#110E29" offset="100%"></stop>
        </linearGradient>
        <path d="M61.911,0.394 L24.638,0.394 C21.889,0.394 19.386,1.981 18.213,4.468 L0.982,41.006 L47.302,41.006 C49.074,41.006 50.666,39.923 51.317,38.275 L64.68,4.465 C65.452,2.511 64.012,0.394 61.911,0.394" id="path-6"></path>
        <linearGradient x1="26.6769185%" y1="13.4172166%" x2="66.7121683%" y2="80.0061558%" id="linearGradient-8">
            <stop stop-color="#29316B" offset="0%"></stop>
            <stop stop-color="#110E29" offset="100%"></stop>
        </linearGradient>
        <path d="M0.652,4.128 C-0.156,6.638 0.441,9.075 1.985,9.572 C3.529,10.068 5.435,8.437 6.243,5.928 C7.05,3.418 6.454,0.981 4.91,0.484 C3.366,-0.013 1.46,1.619 0.652,4.128" id="path-9"></path>
        <linearGradient x1="-28.4067626%" y1="-30.4111506%" x2="155.547178%" y2="158.262363%" id="linearGradient-11">
            <stop stop-color="#69C6E4" offset="0%"></stop>
            <stop stop-color="#445192" offset="100%"></stop>
        </linearGradient>
        <path d="M41.869,93.022 C42.116,93.022 42.368,92.975 42.611,92.874 C43.565,92.477 44.006,91.405 43.595,90.482 L4.151,1.709 C3.741,0.786 2.635,0.359 1.68,0.756 C0.726,1.153 0.285,2.225 0.696,3.148 L40.14,91.921 C40.446,92.61 41.14,93.022 41.869,93.022" id="path-12"></path>
        <linearGradient x1="100.000383%" y1="50.0002194%" x2="0.00054232751%" y2="50.0002194%" id="linearGradient-14">
            <stop stop-color="#ABDADA" offset="0%"></stop>
            <stop stop-color="#ABDAD9" offset="100%"></stop>
        </linearGradient>
        <path d="M2.433,93.022 C3.162,93.022 3.855,92.61 4.162,91.921 L43.605,3.148 C44.016,2.225 43.575,1.153 42.621,0.756 C41.667,0.359 40.561,0.785 40.15,1.709 L0.706,90.482 C0.296,91.405 0.736,92.477 1.69,92.874 C1.933,92.975 2.185,93.022 2.433,93.022" id="path-15"></path>
        <linearGradient x1="100.000383%" y1="50.0002975%" x2="-0.000439130384%" y2="50.0002975%" id="linearGradient-17">
            <stop stop-color="#ABDADA" offset="0%"></stop>
            <stop stop-color="#ABDAD9" offset="100%"></stop>
        </linearGradient>
        <path d="M41.772,93.022 C42.02,93.022 42.272,92.975 42.514,92.874 C43.468,92.477 43.909,91.405 43.499,90.482 L4.055,1.709 C3.644,0.786 2.539,0.359 1.583,0.756 C0.629,1.153 0.188,2.225 0.599,3.148 L40.043,91.921 C40.35,92.61 41.043,93.022 41.772,93.022" id="path-18"></path>
        <linearGradient x1="99.999422%" y1="50.0002194%" x2="0.000542322296%" y2="50.0002194%" id="linearGradient-20">
            <stop stop-color="#ABDADA" offset="0%"></stop>
            <stop stop-color="#ABDAD9" offset="100%"></stop>
        </linearGradient>
        <path d="M2.336,93.022 C3.065,93.022 3.759,92.61 4.065,91.921 L43.509,3.148 C43.92,2.225 43.479,1.153 42.525,0.756 C41.571,0.359 40.465,0.785 40.054,1.709 L0.61,90.482 C0.199,91.405 0.64,92.477 1.594,92.874 C1.836,92.975 2.089,93.022 2.336,93.022" id="path-21"></path>
        <linearGradient x1="100.000383%" y1="50.0002975%" x2="0.00054232751%" y2="50.0002975%" id="linearGradient-23">
            <stop stop-color="#ABDADA" offset="0%"></stop>
            <stop stop-color="#ABDAD9" offset="100%"></stop>
        </linearGradient>
        <path d="M0.71,2.969 C0.609,2.386 0.747,1.784 1.083,1.327 C1.421,0.869 1.923,0.604 2.453,0.604 L181.895,0.604 C182.591,0.604 183.24,1.002 183.615,1.659 C183.991,2.316 184.041,3.142 183.749,3.85 L181.804,8.562 C181.359,9.641 180.394,10.332 179.333,10.332 L3.684,10.332 C2.696,10.332 1.847,9.547 1.66,8.462 L0.71,2.969" id="path-24"></path>
        <linearGradient x1="99.9998656%" y1="50%" x2="0.000223289446%" y2="50%" id="linearGradient-26">
            <stop stop-color="#ABDADA" offset="0%"></stop>
            <stop stop-color="#ABDAD9" offset="100%"></stop>
        </linearGradient>
    </defs>
    <g id="Symbols" stroke="none" stroke-width="1" fill="none" fill-rule="evenodd">
        <g id="Group-26">
            <rect id="Rectangle-2" stroke-opacity="0.01" stroke="#FFFFFF" x="0.5" y="0.5" width="183" height="180"></rect>
            <g id="Group-25-Copy" transform="translate(0.000000, 43.000000)">
                <g id="Group-244" transform="translate(114.000000, 22.000000)">
                    <mask id="mask-2" fill="white">
                        <use xlink:href="#path-1"></use>
                    </mask>
                    <g id="Clip-243"></g>
                </g>
                <g id="Group-271" transform="translate(90.000000, 36.000000)">
                    <mask id="mask-4" fill="white">
                        <use xlink:href="#path-3"></use>
                    </mask>
                    <g id="Clip-270"></g>
                    <path d="M2.819,5.03 L2.922,5.032 L47.678,4.983 C48.784,4.982 49.68,4.084 49.679,2.978 C49.678,1.871 48.777,0.957 47.673,0.977 L2.917,1.025 C1.811,1.026 0.915,1.924 0.916,3.031 C0.917,4.103 1.76,4.978 2.819,5.03" id="Fill-269" fill="url(#linearGradient-5)" mask="url(#mask-4)"></path>
                </g>
                <g id="Group-274" transform="translate(116.000000, 0.000000)">
                    <mask id="mask-7" fill="white">
                        <use xlink:href="#path-6"></use>
                    </mask>
                    <g id="Clip-273"></g>
                    <path d="M61.911,0.394 L24.638,0.394 C21.889,0.394 19.386,1.981 18.213,4.468 L0.982,41.006 L47.302,41.006 C49.074,41.006 50.666,39.923 51.317,38.275 L64.68,4.465 C65.452,2.511 64.012,0.394 61.911,0.394" id="Fill-272" fill="url(#linearGradient-8)" mask="url(#mask-7)"></path>
                </g>
                <g id="Group-277" transform="translate(151.000000, 15.000000)">
                    <mask id="mask-10" fill="white">
                        <use xlink:href="#path-9"></use>
                    </mask>
                    <g id="Clip-276"></g>
                    <path d="M0.652,4.128 C-0.156,6.638 0.441,9.075 1.985,9.572 C3.529,10.068 5.435,8.437 6.243,5.928 C7.05,3.418 6.454,0.981 4.91,0.484 C3.366,-0.013 1.46,1.619 0.652,4.128" id="Fill-275" fill="url(#linearGradient-11)" mask="url(#mask-10)"></path>
                </g>
                <g id="Group-280" transform="translate(130.000000, 44.000000)">
                    <mask id="mask-13" fill="white">
                        <use xlink:href="#path-12"></use>
                    </mask>
                    <g id="Clip-279"></g>
                    <path d="M41.869,93.022 C42.116,93.022 42.368,92.975 42.611,92.874 C43.565,92.477 44.006,91.405 43.595,90.482 L4.151,1.709 C3.741,0.786 2.635,0.359 1.68,0.756 C0.726,1.153 0.285,2.225 0.696,3.148 L40.14,91.921 C40.446,92.61 41.14,93.022 41.869,93.022" id="Fill-278" fill="url(#linearGradient-14)" mask="url(#mask-13)"></path>
                </g>
                <g id="Group-283" transform="translate(125.000000, 44.000000)">
                    <mask id="mask-16" fill="white">
                        <use xlink:href="#path-15"></use>
                    </mask>
                    <g id="Clip-282"></g>
                    <path d="M2.433,93.022 C3.162,93.022 3.855,92.61 4.162,91.921 L43.605,3.148 C44.016,2.225 43.575,1.153 42.621,0.756 C41.667,0.359 40.561,0.785 40.15,1.709 L0.706,90.482 C0.296,91.405 0.736,92.477 1.69,92.874 C1.933,92.975 2.185,93.022 2.433,93.022" id="Fill-281" fill="url(#linearGradient-17)" mask="url(#mask-16)"></path>
                </g>
                <g id="Group-286" transform="translate(8.000000, 44.000000)">
                    <mask id="mask-19" fill="white">
                        <use xlink:href="#path-18"></use>
                    </mask>
                    <g id="Clip-285"></g>
                    <path d="M41.772,93.022 C42.02,93.022 42.272,92.975 42.514,92.874 C43.468,92.477 43.909,91.405 43.499,90.482 L4.055,1.709 C3.644,0.786 2.539,0.359 1.583,0.756 C0.629,1.153 0.188,2.225 0.599,3.148 L40.043,91.921 C40.35,92.61 41.043,93.022 41.772,93.022" id="Fill-284" fill="url(#linearGradient-20)" mask="url(#mask-19)"></path>
                </g>
                <g id="Group-289" transform="translate(3.000000, 44.000000)">
                    <mask id="mask-22" fill="white">
                        <use xlink:href="#path-21"></use>
                    </mask>
                    <g id="Clip-288"></g>
                    <path d="M2.336,93.022 C3.065,93.022 3.759,92.61 4.065,91.921 L43.509,3.148 C43.92,2.225 43.479,1.153 42.525,0.756 C41.571,0.359 40.465,0.785 40.054,1.709 L0.61,90.482 C0.199,91.405 0.64,92.477 1.594,92.874 C1.836,92.975 2.089,93.022 2.336,93.022" id="Fill-287" fill="url(#linearGradient-23)" mask="url(#mask-22)"></path>
                </g>
                <g id="Group-292" transform="translate(0.000000, 40.000000)">
                    <mask id="mask-25" fill="white">
                        <use xlink:href="#path-24"></use>
                    </mask>
                    <g id="Clip-291"></g>
                    <path d="M0.71,2.969 C0.609,2.386 0.747,1.784 1.083,1.327 C1.421,0.869 1.923,0.604 2.453,0.604 L181.895,0.604 C182.591,0.604 183.24,1.002 183.615,1.659 C183.991,2.316 184.041,3.142 183.749,3.85 L181.804,8.562 C181.359,9.641 180.394,10.332 179.333,10.332 L3.684,10.332 C2.696,10.332 1.847,9.547 1.66,8.462 L0.71,2.969" id="Fill-290" fill="url(#linearGradient-26)" mask="url(#mask-25)"></path>
                </g>
            </g>
        </g>
    </g>
</svg>