<?xml version="1.0" encoding="UTF-8"?>
<svg width="184px" height="181px" viewBox="0 0 184 181" version="1.1" xmlns="http://www.w3.org/2000/svg" xmlns:xlink="http://www.w3.org/1999/xlink">
    <!-- Generator: Sketch 51.3 (57544) - http://www.bohemiancoding.com/sketch -->
    <title>Group 28</title>
    <desc>Created with Sketch.</desc>
    <defs>
        <linearGradient x1="128.050249%" y1="95.4068015%" x2="-88.0647841%" y2="-30.3106938%" id="linearGradient-1">
            <stop stop-color="#69C6E4" offset="0%"></stop>
            <stop stop-color="#445192" offset="100%"></stop>
        </linearGradient>
        <path d="M0.333,3.665 L42.509,3.665 L42.509,2.342 C42.509,1.342 41.698,0.531 40.698,0.531 L2.285,0.531 C1.207,0.531 0.333,1.405 0.333,2.483 L0.333,3.665" id="path-2"></path>
        <linearGradient x1="49.1985964%" y1="8.80663689%" x2="24.0660565%" y2="-2118.72049%" id="linearGradient-4">
            <stop stop-color="#69C6E4" offset="0%"></stop>
            <stop stop-color="#445192" offset="100%"></stop>
        </linearGradient>
        <path d="M0.356,10.664 C0.356,13.69 2.833,16.167 5.86,16.167 L51.21,16.167 C54.237,16.167 56.714,13.69 56.714,10.664 L56.714,5.687 C56.714,2.66 54.237,0.184 51.21,0.184 L5.86,0.184 C2.833,0.184 0.356,2.66 0.356,5.687 L0.356,10.664" id="path-5"></path>
        <linearGradient x1="65.9551439%" y1="403.866608%" x2="46.3282941%" y2="-31.4634299%" id="linearGradient-7">
            <stop stop-color="#69C6E4" offset="0%"></stop>
            <stop stop-color="#445192" offset="100%"></stop>
        </linearGradient>
        <path d="M6.242,2.436 C6.242,2.436 19.993,12.347 17.605,19.006 C17.605,19.006 2.561,12.515 0.743,7.401 C-1.075,2.288 1.05,0.029 1.05,0.029 L6.242,2.436" id="path-8"></path>
        <linearGradient x1="100.444421%" y1="-39.9636402%" x2="52.8901115%" y2="48.1330031%" id="linearGradient-10">
            <stop stop-color="#29316B" offset="0%"></stop>
            <stop stop-color="#110E29" offset="100%"></stop>
        </linearGradient>
        <path d="M3.176,0.129 L0.928,6.629 C0.588,7.61 0.928,8.727 1.805,9.281 C2.245,9.559 2.845,9.815 3.666,10.001 C4.824,10.264 6.02,9.729 6.577,8.68 L9.267,3.616 L3.176,0.129" id="path-11"></path>
        <linearGradient x1="-0.00203790484%" y1="49.998296%" x2="99.9917344%" y2="49.998296%" id="linearGradient-13">
            <stop stop-color="#F0B273" offset="0%"></stop>
            <stop stop-color="#E4725C" offset="100%"></stop>
        </linearGradient>
        <path d="M6.295,0.622 C6.295,0.622 34.539,5.517 46.654,16.709 C58.77,27.901 35.534,63.603 35.534,63.603 C35.534,63.603 31.727,63.579 27.113,59.625 C27.113,59.625 40.891,32.774 29.017,24.944 C15.668,16.141 0.285,14.158 0.285,14.158 L6.022,1.485 L6.295,0.622" id="path-14"></path>
        <linearGradient x1="27.6608555%" y1="65.2101427%" x2="99.8237242%" y2="-14.8736921%" id="linearGradient-16">
            <stop stop-color="#110E29" offset="0%"></stop>
            <stop stop-color="#29316B" offset="100%"></stop>
        </linearGradient>
        <path d="M18.216,8.323 C15.192,6.923 6.629,0.93 5.186,0.666 C3.743,0.401 1.239,2.097 1.239,2.097 C1.239,2.097 0.63,3.192 1.282,5.103 C3.292,7.535 7.754,12.17 13.752,13.897 C18.166,15.168 21.252,13.984 23.174,12.598 C22.117,10.987 20.23,9.256 18.216,8.323" id="path-17"></path>
        <linearGradient x1="67.8101948%" y1="12.3912024%" x2="-64.9736529%" y2="291.621899%" id="linearGradient-19">
            <stop stop-color="#29316B" offset="0%"></stop>
            <stop stop-color="#110E29" offset="100%"></stop>
        </linearGradient>
        <path d="M12.752,8.897 C6.754,7.17 2.292,2.535 0.282,0.103 C0.722,1.394 1.737,3.056 3.905,5.005 C9.284,9.839 19.557,11.582 21.744,11.247 C23.497,10.977 23.331,9.359 22.174,7.598 C20.252,8.984 17.166,10.168 12.752,8.897" id="path-20"></path>
        <linearGradient x1="0%" y1="50.0000483%" x2="100.001729%" y2="50.0000483%" id="linearGradient-22">
            <stop stop-color="#69C6E4" offset="0%"></stop>
            <stop stop-color="#445192" offset="100%"></stop>
        </linearGradient>
        <path d="M0.674,2.867 C0.708,3.7 2.412,6.558 3.407,8.161 C3.88,8.923 4.709,9.389 5.605,9.391 C6.174,9.393 6.828,9.343 7.422,9.172 C8.313,8.917 8.814,7.967 8.553,7.077 L6.608,0.436 L0.674,2.867" id="path-23"></path>
        <linearGradient x1="0%" y1="49.9940971%" x2="99.9956614%" y2="49.9940971%" id="linearGradient-25">
            <stop stop-color="#F0B273" offset="0%"></stop>
            <stop stop-color="#E4725C" offset="100%"></stop>
        </linearGradient>
        <path d="M3.107,0.144 C3.107,0.144 -3.165,16.916 3.107,22.017 C9.38,27.117 24.344,32.859 27.686,43.019 C31.029,53.178 36.701,72.921 44.292,79.913 C44.292,79.913 49.626,79.396 51.622,77.271 C51.622,77.271 47.299,47.797 44.447,40.234 C41.978,33.686 38.34,24.232 31.367,18.948 C29.372,17.436 29.719,15.04 30.645,12.713 L32.33,8.476 L3.107,0.144" id="path-26"></path>
        <linearGradient x1="48.3203133%" y1="93.6215823%" x2="52.1865924%" y2="9.07846406%" id="linearGradient-28">
            <stop stop-color="#29316B" offset="0%"></stop>
            <stop stop-color="#110E29" offset="100%"></stop>
        </linearGradient>
        <path d="M23.526,16.999 C13.009,17.633 16.286,0.83 16.476,0.162 L0.513,11.437 C0.513,11.437 1.358,20.422 14.629,25.135 C17.987,26.328 21.056,26.38 23.769,25.797 C22.612,22.423 22.848,19.396 23.526,16.999" id="path-29"></path>
        <linearGradient x1="123.671311%" y1="150.307062%" x2="39.5996732%" y2="32.5931994%" id="linearGradient-31">
            <stop stop-color="#F6EC50" offset="0%"></stop>
            <stop stop-color="#C7395C" offset="100%"></stop>
        </linearGradient>
        <path d="M21.862,1.941 C17.943,-0.785 13.503,1.941 13.503,1.941 C8.263,5.369 4.386,6.826 1.526,6.999 C0.848,9.396 0.612,12.423 1.769,15.797 C7.64,14.536 11.839,10.287 13.665,8.107 C14.321,7.322 15.485,7.186 16.289,7.82 C17.104,8.464 17.897,9.347 17.753,10.275 C17.47,12.107 19.595,12.689 19.755,12.025 C19.916,11.361 19.028,7.423 19.028,7.423 C19.028,7.423 23.279,11.697 24.938,13.339 C26.597,14.982 28.684,13.339 28.684,13.339 C28.684,13.339 25.781,4.667 21.862,1.941" id="path-32"></path>
        <linearGradient x1="-0.00134355554%" y1="50.0051619%" x2="99.9971145%" y2="50.0051619%" id="linearGradient-34">
            <stop stop-color="#F0B273" offset="0%"></stop>
            <stop stop-color="#E4725C" offset="100%"></stop>
        </linearGradient>
        <path d="M17.486,1.214 C17.486,1.214 32.787,-4.913 61.262,18.596 C61.262,18.596 63.64,23.52 61.045,27.901 C58.451,32.283 33.728,53.635 30.33,65.476 C30.33,65.476 15.601,70.262 0.369,58.913 C0.369,58.913 1.713,25.958 17.486,1.214" id="path-35"></path>
        <linearGradient x1="85.3196885%" y1="17.529219%" x2="-15.4078926%" y2="86.2395702%" id="linearGradient-37">
            <stop stop-color="#F6EC50" offset="0%"></stop>
            <stop stop-color="#C7395C" offset="100%"></stop>
        </linearGradient>
        <path d="M8.734,0.747 L1.202,9.878 C0.454,10.784 0.289,12.045 0.806,13.101 C1.852,15.233 4.332,18.338 9.834,17.909 C11.47,17.781 12.919,16.793 13.634,15.316 L18.901,4.429 L8.734,0.747" id="path-38"></path>
        <linearGradient x1="-0.002359435%" y1="49.9996244%" x2="99.9983691%" y2="49.9996244%" id="linearGradient-40">
            <stop stop-color="#F0B273" offset="0%"></stop>
            <stop stop-color="#E4725C" offset="100%"></stop>
        </linearGradient>
        <path d="M19.64,39.321 C17.864,32.087 35.855,15.959 35.855,15.959 L31.486,0.214 C31.486,0.214 -7.364,26.076 2.537,46.875 C3.956,49.856 5.841,51.944 8.026,53.341 C11.155,44.92 16.14,41.059 19.64,39.321" id="path-41"></path>
        <linearGradient x1="164.056297%" y1="-2.7198976%" x2="-14.3944644%" y2="82.6176897%" id="linearGradient-43">
            <stop stop-color="#F6EC50" offset="0%"></stop>
            <stop stop-color="#C7395C" offset="100%"></stop>
        </linearGradient>
        <path d="M0.627,24.268 C0.437,24.268 0.263,24.138 0.215,23.944 C-1.602,16.548 15.817,0.831 16.56,0.165 C16.734,0.009 17.002,0.023 17.16,0.198 C17.317,0.373 17.302,0.642 17.127,0.798 C16.949,0.958 -0.655,16.836 1.041,23.741 C1.097,23.969 0.957,24.199 0.729,24.255 L0.627,24.268" id="path-44"></path>
        <linearGradient x1="-32.352376%" y1="53.360525%" x2="284.203745%" y2="40.4867578%" id="linearGradient-46">
            <stop stop-color="#F6EC50" offset="0%"></stop>
            <stop stop-color="#C7395C" offset="100%"></stop>
        </linearGradient>
        <path d="M38.891,0.698 C38.891,0.698 17.559,8.98 12.353,2.75 C12,2.328 11.769,1.847 11.64,1.321 C8.14,3.059 3.155,6.92 0.026,15.341 C11.246,22.51 30.422,11.353 35.607,8.063 C36.46,7.522 37.483,7.333 38.473,7.538 C40.472,7.953 43.927,8.563 45.791,8.275 C48.517,7.855 52.432,17.471 56.85,14.505 C56.85,14.505 53.066,-2.208 38.891,0.698" id="path-47"></path>
        <linearGradient x1="57.9614248%" y1="35.9761209%" x2="-65.9735323%" y2="741.714764%" id="linearGradient-49">
            <stop stop-color="#F0B273" offset="0%"></stop>
            <stop stop-color="#E4725C" offset="100%"></stop>
        </linearGradient>
        <path d="M15.123,2.334 C15.199,2.628 13.357,22.588 13.357,22.588 L1.982,21.295 L0.917,2.117 C0.917,2.117 13.854,-2.58 15.123,2.334" id="path-50"></path>
        <linearGradient x1="69.4664937%" y1="15.5532493%" x2="-33.7429798%" y2="172.043055%" id="linearGradient-52">
            <stop stop-color="#F0B273" offset="0%"></stop>
            <stop stop-color="#E4725C" offset="100%"></stop>
        </linearGradient>
        <path d="M10.88,13.091 L10.65,23.231 C10.647,23.361 10.661,23.487 10.693,23.613 C10.892,24.385 11.767,26.987 14.375,25.929 C16.742,24.969 18.917,24.128 20.516,24.432 C21.233,24.568 21.73,25.226 21.663,25.953 C21.495,27.767 21.042,31.846 20.106,35.331 C19.917,36.038 19.213,36.475 18.492,36.348 C16.32,35.965 11.761,35.03 8.27,33.418 C7.796,33.2 7.479,32.747 7.444,32.227 C7.273,29.692 6.727,21.991 6.243,19.868 C5.788,17.875 3.179,16.938 2.055,16.624 C1.687,16.52 1.38,16.272 1.2,15.935 C0.565,14.741 -0.439,11.927 3.072,10.343 C3.807,10.012 4.119,9.146 3.765,8.422 C3.061,6.979 2.582,4.713 5.26,3.142 C7.982,1.544 10.288,2.836 11.579,3.95 C12.101,4.4 12.858,4.395 13.397,3.965 C13.704,3.72 14.121,3.605 14.669,3.869 C15.408,4.224 16.292,3.83 16.568,3.058 C17.1,1.575 18.332,-0.085 21.187,0.087 C26.254,0.393 27.422,5.842 26.465,9.216 C25.507,12.59 20.032,11.946 17.175,10.612 C15.002,9.597 12.503,11.185 11.429,12.004 C11.089,12.264 10.89,12.664 10.88,13.091" id="path-53"></path>
        <linearGradient x1="7.82830533%" y1="60.6452604%" x2="109.318516%" y2="41.73285%" id="linearGradient-55">
            <stop stop-color="#29316B" offset="0%"></stop>
            <stop stop-color="#110E29" offset="100%"></stop>
        </linearGradient>
        <path d="M6.196,8.561 C6.196,8.561 7.612,2.61 5.357,1.439 C3.103,0.267 0.071,1.336 1.212,5.409 C2.63,10.475 6.196,8.561 6.196,8.561" id="path-56"></path>
        <linearGradient x1="-172.225851%" y1="332.468473%" x2="59.2978153%" y2="43.0455455%" id="linearGradient-58">
            <stop stop-color="#F0B273" offset="0%"></stop>
            <stop stop-color="#E4725C" offset="100%"></stop>
        </linearGradient>
        <path d="M41.869,93.022 C42.116,93.022 42.368,92.975 42.611,92.874 C43.565,92.477 44.006,91.405 43.595,90.482 L4.151,1.709 C3.741,0.786 2.635,0.359 1.68,0.756 C0.726,1.153 0.285,2.225 0.696,3.148 L40.14,91.921 C40.446,92.61 41.14,93.022 41.869,93.022" id="path-59"></path>
        <path d="M41.772,93.022 C42.02,93.022 42.272,92.975 42.514,92.874 C43.468,92.477 43.909,91.405 43.499,90.482 L4.055,1.709 C3.644,0.786 2.539,0.359 1.583,0.756 C0.629,1.153 0.188,2.225 0.599,3.148 L40.043,91.921 C40.35,92.61 41.043,93.022 41.772,93.022" id="path-61"></path>
    </defs>
    <g id="Symbols" stroke="none" stroke-width="1" fill="none" fill-rule="evenodd">
        <g id="Group-28">
            <rect id="Rectangle-3" stroke-opacity="0.01" stroke="#FFFFFF" x="0.5" y="0.5" width="183" height="180"></rect>
            <g id="Group-23">
                <g id="Group-4-Copy">
                    <polygon id="Fill-210" fill="url(#linearGradient-1)" points="64.013 168.661 68.829 168.661 68.829 116.584 64.013 116.584"></polygon>
                    <g id="Group-214" transform="translate(45.000000, 166.000000)">
                        <mask id="mask-3" fill="white">
                            <use xlink:href="#path-2"></use>
                        </mask>
                        <g id="Clip-213"></g>
                        <path d="M0.333,3.665 L42.509,3.665 L42.509,2.342 C42.509,1.342 41.698,0.531 40.698,0.531 L2.285,0.531 C1.207,0.531 0.333,1.405 0.333,2.483 L0.333,3.665" id="Fill-212" fill="url(#linearGradient-4)" mask="url(#mask-3)"></path>
                    </g>
                    <g id="Group-217" transform="translate(37.000000, 104.000000)">
                        <mask id="mask-6" fill="white">
                            <use xlink:href="#path-5"></use>
                        </mask>
                        <g id="Clip-216"></g>
                        <path d="M0.356,10.664 C0.356,13.69 2.833,16.167 5.86,16.167 L51.21,16.167 C54.237,16.167 56.714,13.69 56.714,10.664 L56.714,5.687 C56.714,2.66 54.237,0.184 51.21,0.184 L5.86,0.184 C2.833,0.184 0.356,2.66 0.356,5.687 L0.356,10.664" id="Fill-215" fill="url(#linearGradient-7)" mask="url(#mask-6)"></path>
                    </g>
                    <g id="Group-220" transform="translate(87.000000, 157.000000)">
                        <mask id="mask-9" fill="white">
                            <use xlink:href="#path-8"></use>
                        </mask>
                        <g id="Clip-219"></g>
                        <path d="M6.242,2.436 C6.242,2.436 19.993,12.347 17.605,19.006 C17.605,19.006 2.561,12.515 0.743,7.401 C-1.075,2.288 1.05,0.029 1.05,0.029 L6.242,2.436" id="Fill-218" fill="url(#linearGradient-10)" mask="url(#mask-9)"></path>
                    </g>
                    <g id="Group-223" transform="translate(88.000000, 151.000000)">
                        <mask id="mask-12" fill="white">
                            <use xlink:href="#path-11"></use>
                        </mask>
                        <g id="Clip-222"></g>
                        <path d="M3.176,0.129 L0.928,6.629 C0.588,7.61 0.928,8.727 1.805,9.281 C2.245,9.559 2.845,9.815 3.666,10.001 C4.824,10.264 6.02,9.729 6.577,8.68 L9.267,3.616 L3.176,0.129" id="Fill-221" fill="url(#linearGradient-13)" mask="url(#mask-12)"></path>
                    </g>
                    <g id="Group-226" transform="translate(63.000000, 92.000000)">
                        <mask id="mask-15" fill="white">
                            <use xlink:href="#path-14"></use>
                        </mask>
                        <g id="Clip-225"></g>
                        <path d="M6.295,0.622 C6.295,0.622 34.539,5.517 46.654,16.709 C58.77,27.901 35.534,63.603 35.534,63.603 C35.534,63.603 31.727,63.579 27.113,59.625 C27.113,59.625 40.891,32.774 29.017,24.944 C15.668,16.141 0.285,14.158 0.285,14.158 L6.022,1.485 L6.295,0.622" id="Fill-224" fill="url(#linearGradient-16)" mask="url(#mask-15)"></path>
                    </g>
                    <g id="Group-229" transform="translate(84.000000, 164.000000)">
                        <mask id="mask-18" fill="white">
                            <use xlink:href="#path-17"></use>
                        </mask>
                        <g id="Clip-228"></g>
                        <path d="M18.216,8.323 C15.192,6.923 6.629,0.93 5.186,0.666 C3.743,0.401 1.239,2.097 1.239,2.097 C1.239,2.097 0.63,3.192 1.282,5.103 C3.292,7.535 7.754,12.17 13.752,13.897 C18.166,15.168 21.252,13.984 23.174,12.598 C22.117,10.987 20.23,9.256 18.216,8.323" id="Fill-227" fill="url(#linearGradient-19)" mask="url(#mask-18)"></path>
                    </g>
                    <g id="Group-232" transform="translate(85.000000, 169.000000)">
                        <mask id="mask-21" fill="white">
                            <use xlink:href="#path-20"></use>
                        </mask>
                        <g id="Clip-231"></g>
                        <path d="M12.752,8.897 C6.754,7.17 2.292,2.535 0.282,0.103 C0.722,1.394 1.737,3.056 3.905,5.005 C9.284,9.839 19.557,11.582 21.744,11.247 C23.497,10.977 23.331,9.359 22.174,7.598 C20.252,8.984 17.166,10.168 12.752,8.897" id="Fill-230" fill="url(#linearGradient-22)" mask="url(#mask-21)"></path>
                    </g>
                    <g id="Group-235" transform="translate(82.000000, 159.000000)">
                        <mask id="mask-24" fill="white">
                            <use xlink:href="#path-23"></use>
                        </mask>
                        <g id="Clip-234"></g>
                        <path d="M0.674,2.867 C0.708,3.7 2.412,6.558 3.407,8.161 C3.88,8.923 4.709,9.389 5.605,9.391 C6.174,9.393 6.828,9.343 7.422,9.172 C8.313,8.917 8.814,7.967 8.553,7.077 L6.608,0.436 L0.674,2.867" id="Fill-233" fill="url(#linearGradient-25)" mask="url(#mask-24)"></path>
                    </g>
                    <g id="Group-238" transform="translate(39.000000, 84.000000)">
                        <mask id="mask-27" fill="white">
                            <use xlink:href="#path-26"></use>
                        </mask>
                        <g id="Clip-237"></g>
                        <path d="M3.107,0.144 C3.107,0.144 -3.165,16.916 3.107,22.017 C9.38,27.117 24.344,32.859 27.686,43.019 C31.029,53.178 36.701,72.921 44.292,79.913 C44.292,79.913 49.626,79.396 51.622,77.271 C51.622,77.271 47.299,47.797 44.447,40.234 C41.978,33.686 38.34,24.232 31.367,18.948 C29.372,17.436 29.719,15.04 30.645,12.713 L32.33,8.476 L3.107,0.144" id="Fill-236" fill="url(#linearGradient-28)" mask="url(#mask-27)"></path>
                    </g>
                    <g id="Group-241" transform="translate(84.000000, 54.000000)">
                        <mask id="mask-30" fill="white">
                            <use xlink:href="#path-29"></use>
                        </mask>
                        <g id="Clip-240"></g>
                        <path d="M23.526,16.999 C13.009,17.633 16.286,0.83 16.476,0.162 L0.513,11.437 C0.513,11.437 1.358,20.422 14.629,25.135 C17.987,26.328 21.056,26.38 23.769,25.797 C22.612,22.423 22.848,19.396 23.526,16.999" id="Fill-239" fill="url(#linearGradient-31)" mask="url(#mask-30)"></path>
                    </g>
                    <g id="Group-244" transform="translate(106.000000, 64.000000)">
                        <mask id="mask-33" fill="white">
                            <use xlink:href="#path-32"></use>
                        </mask>
                        <g id="Clip-243"></g>
                        <path d="M21.862,1.941 C17.943,-0.785 13.503,1.941 13.503,1.941 C8.263,5.369 4.386,6.826 1.526,6.999 C0.848,9.396 0.612,12.423 1.769,15.797 C7.64,14.536 11.839,10.287 13.665,8.107 C14.321,7.322 15.485,7.186 16.289,7.82 C17.104,8.464 17.897,9.347 17.753,10.275 C17.47,12.107 19.595,12.689 19.755,12.025 C19.916,11.361 19.028,7.423 19.028,7.423 C19.028,7.423 23.279,11.697 24.938,13.339 C26.597,14.982 28.684,13.339 28.684,13.339 C28.684,13.339 25.781,4.667 21.862,1.941" id="Fill-242" fill="url(#linearGradient-34)" mask="url(#mask-33)"></path>
                    </g>
                    <g id="Group-247" transform="translate(41.000000, 27.000000)">
                        <mask id="mask-36" fill="white">
                            <use xlink:href="#path-35"></use>
                        </mask>
                        <g id="Clip-246"></g>
                        <path d="M17.486,1.214 C17.486,1.214 32.787,-4.913 61.262,18.596 C61.262,18.596 63.64,23.52 61.045,27.901 C58.451,32.283 33.728,53.635 30.33,65.476 C30.33,65.476 15.601,70.262 0.369,58.913 C0.369,58.913 1.713,25.958 17.486,1.214" id="Fill-245" fill="url(#linearGradient-37)" mask="url(#mask-36)"></path>
                    </g>
                    <g id="Group-250" transform="translate(80.000000, 22.000000)">
                        <mask id="mask-39" fill="white">
                            <use xlink:href="#path-38"></use>
                        </mask>
                        <g id="Clip-249"></g>
                        <path d="M8.734,0.747 L1.202,9.878 C0.454,10.784 0.289,12.045 0.806,13.101 C1.852,15.233 4.332,18.338 9.834,17.909 C11.47,17.781 12.919,16.793 13.634,15.316 L18.901,4.429 L8.734,0.747" id="Fill-248" fill="url(#linearGradient-40)" mask="url(#mask-39)"></path>
                    </g>
                    <g id="Group-253" transform="translate(27.000000, 28.000000)">
                        <mask id="mask-42" fill="white">
                            <use xlink:href="#path-41"></use>
                        </mask>
                        <g id="Clip-252"></g>
                        <path d="M19.64,39.321 C17.864,32.087 35.855,15.959 35.855,15.959 L31.486,0.214 C31.486,0.214 -7.364,26.076 2.537,46.875 C3.956,49.856 5.841,51.944 8.026,53.341 C11.155,44.92 16.14,41.059 19.64,39.321" id="Fill-251" fill="url(#linearGradient-43)" mask="url(#mask-42)"></path>
                    </g>
                    <g id="Group-256" transform="translate(46.000000, 42.000000)">
                        <mask id="mask-45" fill="white">
                            <use xlink:href="#path-44"></use>
                        </mask>
                        <g id="Clip-255"></g>
                        <path d="M0.627,24.268 C0.437,24.268 0.263,24.138 0.215,23.944 C-1.602,16.548 15.817,0.831 16.56,0.165 C16.734,0.009 17.002,0.023 17.16,0.198 C17.317,0.373 17.302,0.642 17.127,0.798 C16.949,0.958 -0.655,16.836 1.041,23.741 C1.097,23.969 0.957,24.199 0.729,24.255 L0.627,24.268" id="Fill-254" fill="url(#linearGradient-46)" mask="url(#mask-45)"></path>
                    </g>
                    <g id="Group-259" transform="translate(35.000000, 66.000000)">
                        <mask id="mask-48" fill="white">
                            <use xlink:href="#path-47"></use>
                        </mask>
                        <g id="Clip-258"></g>
                        <path d="M38.891,0.698 C38.891,0.698 17.559,8.98 12.353,2.75 C12,2.328 11.769,1.847 11.64,1.321 C8.14,3.059 3.155,6.92 0.026,15.341 C11.246,22.51 30.422,11.353 35.607,8.063 C36.46,7.522 37.483,7.333 38.473,7.538 C40.472,7.953 43.927,8.563 45.791,8.275 C48.517,7.855 52.432,17.471 56.85,14.505 C56.85,14.505 53.066,-2.208 38.891,0.698" id="Fill-257" fill="url(#linearGradient-49)" mask="url(#mask-48)"></path>
                    </g>
                    <g id="Group-262" transform="translate(90.000000, 7.000000)">
                        <mask id="mask-51" fill="white">
                            <use xlink:href="#path-50"></use>
                        </mask>
                        <g id="Clip-261"></g>
                        <path d="M15.123,2.334 C15.199,2.628 13.357,22.588 13.357,22.588 L1.982,21.295 L0.917,2.117 C0.917,2.117 13.854,-2.58 15.123,2.334" id="Fill-260" fill="url(#linearGradient-52)" mask="url(#mask-51)"></path>
                    </g>
                    <g id="Group-265" transform="translate(83.000000, 0.000000)">
                        <mask id="mask-54" fill="white">
                            <use xlink:href="#path-53"></use>
                        </mask>
                        <g id="Clip-264"></g>
                        <path d="M10.88,13.091 L10.65,23.231 C10.647,23.361 10.661,23.487 10.693,23.613 C10.892,24.385 11.767,26.987 14.375,25.929 C16.742,24.969 18.917,24.128 20.516,24.432 C21.233,24.568 21.73,25.226 21.663,25.953 C21.495,27.767 21.042,31.846 20.106,35.331 C19.917,36.038 19.213,36.475 18.492,36.348 C16.32,35.965 11.761,35.03 8.27,33.418 C7.796,33.2 7.479,32.747 7.444,32.227 C7.273,29.692 6.727,21.991 6.243,19.868 C5.788,17.875 3.179,16.938 2.055,16.624 C1.687,16.52 1.38,16.272 1.2,15.935 C0.565,14.741 -0.439,11.927 3.072,10.343 C3.807,10.012 4.119,9.146 3.765,8.422 C3.061,6.979 2.582,4.713 5.26,3.142 C7.982,1.544 10.288,2.836 11.579,3.95 C12.101,4.4 12.858,4.395 13.397,3.965 C13.704,3.72 14.121,3.605 14.669,3.869 C15.408,4.224 16.292,3.83 16.568,3.058 C17.1,1.575 18.332,-0.085 21.187,0.087 C26.254,0.393 27.422,5.842 26.465,9.216 C25.507,12.59 20.032,11.946 17.175,10.612 C15.002,9.597 12.503,11.185 11.429,12.004 C11.089,12.264 10.89,12.664 10.88,13.091" id="Fill-263" fill="url(#linearGradient-55)" mask="url(#mask-54)"></path>
                    </g>
                    <g id="Group-268" transform="translate(83.000000, 15.000000)">
                        <mask id="mask-57" fill="white">
                            <use xlink:href="#path-56"></use>
                        </mask>
                        <g id="Clip-267"></g>
                        <path d="M6.196,8.561 C6.196,8.561 7.612,2.61 5.357,1.439 C3.103,0.267 0.071,1.336 1.212,5.409 C2.63,10.475 6.196,8.561 6.196,8.561" id="Fill-266" fill="url(#linearGradient-58)" mask="url(#mask-57)"></path>
                    </g>
                    <g id="Group-280" transform="translate(122.000000, 86.000000)">
                        <mask id="mask-60" fill="white">
                            <use xlink:href="#path-59"></use>
                        </mask>
                        <g id="Clip-279"></g>
                    </g>
                    <g id="Group-286" transform="translate(0.000000, 86.000000)">
                        <mask id="mask-62" fill="white">
                            <use xlink:href="#path-61"></use>
                        </mask>
                        <g id="Clip-285"></g>
                    </g>
                </g>
            </g>
        </g>
    </g>
</svg>