<?xml version="1.0" encoding="UTF-8"?>
<svg width="126px" height="21px" viewBox="0 0 126 21" version="1.1" xmlns="http://www.w3.org/2000/svg" xmlns:xlink="http://www.w3.org/1999/xlink">
    <!-- Generator: Sketch 51.3 (57544) - http://www.bohemiancoding.com/sketch -->
    <title>Group 4</title>
    <desc>Created with Sketch.</desc>
    <defs>
        <polygon id="path-1" points="0.625 0.586 8.164 0.586 8.164 19.591 0.625 19.591"></polygon>
    </defs>
    <g id="Page-1" stroke="none" stroke-width="1" fill="none" fill-rule="evenodd">
        <g id="Artboard" transform="translate(-557.000000, -2159.000000)">
            <g id="Group-4" transform="translate(557.000000, 2159.000000)">
                <g id="Group-3">
                    <path d="M3.701,7.716 C3.756,7.769 3.787,7.848 3.787,7.927 L3.787,20.158 L7.314,20.158 L7.314,7.927 C7.314,7.848 7.346,7.769 7.403,7.713 C7.459,7.659 7.536,7.625 7.616,7.625 L10.481,7.625 L10.481,4.6 L0.6,4.6 L0.6,7.625 L3.488,7.625 L3.488,7.927 L3.488,7.625 C3.567,7.625 3.645,7.659 3.701,7.716 Z M3.488,20.76 C3.41,20.76 3.332,20.727 3.276,20.672 C3.221,20.615 3.188,20.538 3.188,20.46 L3.188,8.227 L0.301,8.227 C0.22,8.227 0.143,8.193 0.089,8.139 C0.032,8.082 0,8.005 0,7.927 L0,4.302 C0,4.222 0.032,4.144 0.089,4.088 C0.143,4.033 0.22,4 0.301,4 L10.781,4 C10.86,4 10.938,4.033 10.994,4.09 C11.049,4.144 11.08,4.222 11.08,4.302 L11.08,7.927 C11.08,8.007 11.049,8.082 10.992,8.139 C10.936,8.195 10.862,8.227 10.781,8.227 L7.914,8.227 L7.914,20.46 C7.914,20.54 7.885,20.615 7.828,20.672 C7.771,20.728 7.696,20.76 7.616,20.76 L3.488,20.76 Z" id="Fill-11" fill="#FBD020"></path>
                    <path d="M4.701,6.715 C4.757,6.769 4.789,6.846 4.789,6.926 L4.789,19.158 L8.315,19.158 L8.315,6.926 C8.315,6.846 8.346,6.769 8.403,6.713 C8.458,6.658 8.535,6.625 8.615,6.625 L11.481,6.625 L11.481,3.599 L1.6,3.599 L1.6,6.625 L4.489,6.625 L4.489,6.926 L4.489,6.625 C4.566,6.625 4.644,6.658 4.701,6.715 Z M4.489,19.759 C4.409,19.759 4.332,19.726 4.275,19.672 C4.22,19.615 4.187,19.538 4.187,19.46 L4.187,7.226 L1.3,7.226 C1.22,7.226 1.145,7.193 1.088,7.138 C1.031,7.082 1,7.004 1,6.926 L1,3.301 C1,3.221 1.031,3.144 1.088,3.088 C1.143,3.033 1.22,3 1.3,3 L11.781,3 C11.86,3 11.938,3.033 11.995,3.09 C12.049,3.144 12.081,3.221 12.081,3.301 L12.081,6.926 C12.081,7.007 12.049,7.082 11.992,7.138 C11.936,7.195 11.86,7.226 11.781,7.226 L8.915,7.226 L8.915,19.46 C8.915,19.54 8.883,19.615 8.827,19.672 C8.77,19.728 8.694,19.759 8.615,19.759 L4.489,19.759 Z" id="Fill-12" fill="#1A1919"></path>
                    <g id="Group-94" transform="translate(108.000000, 1.000000)">
                        <mask id="mask-2" fill="white">
                            <use xlink:href="#path-1"></use>
                        </mask>
                        <g id="Clip-86"></g>
                        <polyline id="Fill-85" fill="#79C5BB" mask="url(#mask-2)" points="6.23 -3.484 -8.606 11.351 -9.771 10.187 5.065 -4.649 6.23 -3.484"></polyline>
                        <polyline id="Fill-87" fill="#79C5BB" mask="url(#mask-2)" points="8.081 -1.634 -6.755 13.202 -7.92 12.037 6.916 -2.799 8.081 -1.634"></polyline>
                        <polyline id="Fill-88" fill="#79C5BB" mask="url(#mask-2)" points="9.93 0.215 -4.906 15.051 -6.071 13.886 8.765 -0.95 9.93 0.215"></polyline>
                        <polyline id="Fill-89" fill="#79C5BB" mask="url(#mask-2)" points="11.78 2.066 -3.056 16.901 -4.22 15.737 10.615 0.901 11.78 2.066"></polyline>
                        <polyline id="Fill-90" fill="#79C5BB" mask="url(#mask-2)" points="13.63 3.915 -1.206 18.751 -2.371 17.586 12.465 2.75 13.63 3.915"></polyline>
                        <polyline id="Fill-91" fill="#79C5BB" mask="url(#mask-2)" points="15.48 5.765 0.644 20.601 -0.521 19.436 14.315 4.6 15.48 5.765"></polyline>
                        <polyline id="Fill-92" fill="#79C5BB" mask="url(#mask-2)" points="17.33 7.616 2.494 22.451 1.33 21.287 16.165 6.451 17.33 7.616"></polyline>
                        <polyline id="Fill-93" fill="#79C5BB" mask="url(#mask-2)" points="19.18 9.465 4.344 24.301 3.179 23.136 18.015 8.3 19.18 9.465"></polyline>
                    </g>
                    <path d="M120.712,12.696 C120.791,12.696 120.869,12.729 120.925,12.786 C120.981,12.841 121.013,12.919 121.013,12.997 L121.013,19.16 L124.54,19.16 L124.54,3.602 L121.013,3.602 L121.013,9.373 C121.013,9.453 120.981,9.527 120.925,9.583 C120.869,9.64 120.794,9.671 120.712,9.671 L115.43,9.671 C115.35,9.671 115.273,9.64 115.217,9.583 C115.161,9.527 115.129,9.45 115.129,9.373 L115.129,3.602 L111.602,3.602 L111.602,19.16 L115.129,19.16 L115.129,12.997 C115.129,12.919 115.161,12.841 115.217,12.784 C115.273,12.729 115.35,12.696 115.43,12.696 L120.712,12.696 Z M120.712,19.761 C120.633,19.761 120.558,19.727 120.501,19.671 C120.445,19.617 120.412,19.538 120.412,19.46 L120.412,13.296 L115.728,13.296 L115.728,19.46 C115.728,19.54 115.697,19.615 115.641,19.671 C115.584,19.729 115.509,19.761 115.43,19.761 L111.301,19.761 C111.222,19.761 111.144,19.727 111.09,19.671 C111.034,19.617 111,19.538 111,19.46 L111,3.301 C111,3.222 111.034,3.145 111.09,3.088 C111.144,3.034 111.222,3 111.301,3 L115.43,3 C115.509,3 115.586,3.034 115.641,3.09 C115.697,3.145 115.728,3.222 115.728,3.301 L115.728,9.07 L120.412,9.07 L120.412,3.301 C120.412,3.222 120.445,3.145 120.501,3.088 C120.556,3.034 120.633,3 120.712,3 L124.841,3 C124.92,3 124.997,3.034 125.052,3.09 C125.108,3.145 125.139,3.222 125.139,3.301 L125.139,19.46 C125.139,19.54 125.108,19.615 125.052,19.671 C124.995,19.729 124.92,19.761 124.841,19.761 L120.712,19.761 Z" id="Fill-95" fill="#1A1919"></path>
                    <path d="M90.546,7.773 C90.546,9.857 88.857,11.547 86.773,11.547 C84.689,11.547 83,9.857 83,7.773 C83,5.689 84.689,4 86.773,4 C88.857,4 90.546,5.689 90.546,7.773" id="Fill-96-Copy" fill="#79C5BB"></path>
                    <path d="M80.824,7.912 C80.824,8.416 80.416,8.824 79.912,8.824 C79.408,8.824 79,8.416 79,7.912 C79,7.408 79.408,7 79.912,7 C80.416,7 80.824,7.408 80.824,7.912" id="Fill-97-Copy" fill="#FBD020"></path>
                    <path d="M84.308,13.654 C84.308,15.119 83.12,16.307 81.654,16.307 C80.188,16.307 79,15.119 79,13.654 C79,12.188 80.188,11 81.654,11 C83.12,11 84.308,12.188 84.308,13.654" id="Fill-98-Copy" fill="#E77D8B"></path>
                    <path d="M82.599,18.16 L86.126,18.16 L86.126,2.602 L82.599,2.602 L82.599,18.16 Z M82.301,18.761 C82.222,18.761 82.144,18.727 82.088,18.671 C82.032,18.617 82,18.538 82,18.46 L82,2.301 C82,2.222 82.032,2.145 82.088,2.088 C82.144,2.034 82.219,2 82.301,2 L86.427,2 C86.506,2 86.584,2.034 86.64,2.09 C86.694,2.145 86.728,2.222 86.728,2.301 L86.728,18.46 C86.728,18.54 86.696,18.615 86.638,18.671 C86.581,18.729 86.506,18.761 86.427,18.761 L82.301,18.761 Z" id="Fill-99-Copy" fill="#1A1919"></path>
                    <path d="M93,7.759 C93,4.724 95.948,3 98.656,3 C100.25,3 101.975,3.59 103.023,4.834 C103.983,6.013 104.049,7.105 104.093,8.022 L93,7.759" id="Fill-100" fill="#FBD020"></path>
                    <path d="M106.464,12.174 C106.464,14.532 105.11,17.131 100.831,17.131 C96.158,17.131 95,14.074 95,12 L106.464,12.174" id="Fill-101" fill="#79C5BB"></path>
                    <path d="M93.6,13.94 C93.634,15.917 94.619,18.748 99.131,18.771 C103.27,18.741 104.431,16.361 104.465,14.114 C104.442,12.336 103.827,11.118 100.863,9.759 C99.41,9.101 98.575,8.73 98.055,8.365 C97.523,8.017 97.326,7.539 97.347,7.019 C97.355,6.048 98.219,5.453 99.066,5.45 C100.355,5.441 100.704,6.425 100.81,7.023 L104.317,7.023 C104.263,6.196 104.131,5.313 103.335,4.327 C102.366,3.172 100.72,2.6 99.196,2.602 C96.594,2.607 93.847,4.254 93.841,7.061 C93.829,9.87 96.46,10.948 97.609,11.413 C98.854,11.94 99.649,12.263 100.179,12.625 C100.718,12.974 100.976,13.473 100.959,14.07 C100.957,14.961 100.251,15.917 99.087,15.921 C98.766,15.919 98.278,15.825 97.85,15.445 C97.467,15.106 97.171,14.545 97.116,13.716 L93.6,13.714 L93.6,13.94 Z M94.236,17.477 C93.303,16.381 93,15.03 93,13.94 L93,13.416 C93,13.336 93.032,13.259 93.089,13.202 C93.145,13.148 93.223,13.114 93.301,13.114 L97.406,13.114 C97.485,13.114 97.563,13.148 97.619,13.204 C97.674,13.259 97.705,13.336 97.705,13.416 C97.731,15.146 98.67,15.286 99.087,15.319 C99.888,15.319 100.356,14.665 100.36,14.07 C100.343,13.599 100.263,13.431 99.84,13.12 C99.41,12.82 98.621,12.489 97.38,11.969 C96.257,11.514 93.254,10.321 93.241,7.061 C93.256,3.799 96.385,2.006 99.196,2 C100.861,2.002 102.666,2.609 103.796,3.945 C104.815,5.19 104.893,6.392 104.932,7.309 C104.937,7.393 104.908,7.47 104.851,7.53 C104.794,7.589 104.717,7.623 104.635,7.623 L100.551,7.623 L100.551,7.323 L100.846,7.276 L100.551,7.323 L100.551,7.623 C100.404,7.623 100.278,7.516 100.255,7.371 C100.133,6.786 100.102,6.061 99.066,6.051 C98.47,6.057 97.947,6.457 97.947,7.019 C97.965,7.457 97.986,7.558 98.402,7.874 C98.825,8.177 99.659,8.558 101.11,9.21 C104.171,10.558 105.088,12.137 105.065,14.114 C105.065,15.347 104.71,16.666 103.773,17.681 C102.836,18.695 101.328,19.372 99.131,19.37 C99.125,19.37 99.118,19.37 99.112,19.37 C96.722,19.37 95.166,18.572 94.236,17.477 Z" id="Fill-102" fill="#1A1919"></path>
                    <polyline id="Fill-121" fill="#E77D8B" points="48 15.364 57.996 15.364 52.901 2 48 15.364"></polyline>
                    <polygon id="Fill-122" fill="#79C5BB" points="43 5.514 47.724 5.514 47.724 5 43 5"></polygon>
                    <polygon id="Fill-123" fill="#79C5BB" points="43 8.514 47.725 8.514 47.725 8 43 8"></polygon>
                    <polygon id="Fill-124" fill="#79C5BB" points="42 10.513 46.725 10.513 46.725 10 42 10"></polygon>
                    <polygon id="Fill-125" fill="#79C5BB" points="41 12.513 45.725 12.513 45.725 12 41 12"></polygon>
                    <polygon id="Fill-126" fill="#79C5BB" points="40 14.513 44.725 14.513 44.725 14 40 14"></polygon>
                    <polygon id="Fill-127" fill="#79C5BB" points="39 16.514 43.724 16.514 43.724 16 39 16"></polygon>
                    <path d="M49.6743469,13.547 L48.4113469,10.104 L47.1493469,13.547 L49.6743469,13.547 Z M46.7193469,14.148 C46.6213469,14.148 46.5293469,14.1 46.4723469,14.019 C46.4163469,13.94 46.4043469,13.837 46.4373469,13.746 L48.0963469,9.22 C48.1403469,9.101 48.2533469,9.024 48.3783469,9.024 L48.4453469,9.024 C48.5703469,9.024 48.6833469,9.101 48.7243469,9.22 L50.3843469,13.746 C50.4193469,13.837 50.4053469,13.94 50.3483469,14.019 C50.2923469,14.1 50.2023469,14.148 50.1043469,14.148 L46.7193469,14.148 Z M45.5833469,17.423 L45.5833469,17.124 L45.5833469,17.423 Z M51.1963469,16.824 C51.3253469,16.824 51.4383469,16.906 51.4803469,17.029 L52.1963469,19.16 L56.0153469,19.16 L49.8353469,3.6 L46.9883469,3.6 L40.7433469,19.16 L44.5213469,19.16 L45.3013469,17.02 C45.3433469,16.901 45.4563469,16.824 45.5833469,16.824 L51.1963469,16.824 Z M51.9813469,19.761 C51.8513469,19.761 51.7373469,19.677 51.6963469,19.554 L50.9793469,17.423 L45.7943469,17.423 L45.0133469,19.563 C44.9703469,19.681 44.8573469,19.761 44.7323469,19.761 L40.2993469,19.761 C40.2003469,19.761 40.1073469,19.71 40.0503469,19.627 C39.9963469,19.545 39.9843469,19.439 40.0213469,19.347 L46.5063469,3.189 C46.5523469,3.076 46.6623469,3 46.7853469,3 L50.0373469,3 C50.1603469,3 50.2713469,3.076 50.3173469,3.191 L56.7353469,19.35 C56.7733469,19.442 56.7603469,19.545 56.7063469,19.627 C56.6503469,19.71 56.5563469,19.761 56.4583469,19.761 L51.9813469,19.761 Z" id="Fill-128" fill="#1A1919"></path>
                    <polyline id="Fill-121" fill="#E77D8B" points="24 15.364 33.996 15.364 28.901 2 24 15.364"></polyline>
                    <polygon id="Fill-122" fill="#79C5BB" points="19 5.514 23.724 5.514 23.724 5 19 5"></polygon>
                    <polygon id="Fill-123" fill="#79C5BB" points="19 8.514 23.725 8.514 23.725 8 19 8"></polygon>
                    <polygon id="Fill-124" fill="#79C5BB" points="18 10.513 22.725 10.513 22.725 10 18 10"></polygon>
                    <polygon id="Fill-125" fill="#79C5BB" points="17 12.513 21.725 12.513 21.725 12 17 12"></polygon>
                    <polygon id="Fill-126" fill="#79C5BB" points="16 14.513 20.725 14.513 20.725 14 16 14"></polygon>
                    <polygon id="Fill-127" fill="#79C5BB" points="15 16.514 19.724 16.514 19.724 16 15 16"></polygon>
                    <path d="M25.6743469,13.547 L24.4113469,10.104 L23.1493469,13.547 L25.6743469,13.547 Z M22.7193469,14.148 C22.6213469,14.148 22.5293469,14.1 22.4723469,14.019 C22.4163469,13.94 22.4043469,13.837 22.4373469,13.746 L24.0963469,9.22 C24.1403469,9.101 24.2533469,9.024 24.3783469,9.024 L24.4453469,9.024 C24.5703469,9.024 24.6833469,9.101 24.7243469,9.22 L26.3843469,13.746 C26.4193469,13.837 26.4053469,13.94 26.3483469,14.019 C26.2923469,14.1 26.2023469,14.148 26.1043469,14.148 L22.7193469,14.148 Z M21.5833469,17.423 L21.5833469,17.124 L21.5833469,17.423 Z M27.1963469,16.824 C27.3253469,16.824 27.4383469,16.906 27.4803469,17.029 L28.1963469,19.16 L32.0153469,19.16 L25.8353469,3.6 L22.9883469,3.6 L16.7433469,19.16 L20.5213469,19.16 L21.3013469,17.02 C21.3433469,16.901 21.4563469,16.824 21.5833469,16.824 L27.1963469,16.824 Z M27.9813469,19.761 C27.8513469,19.761 27.7373469,19.677 27.6963469,19.554 L26.9793469,17.423 L21.7943469,17.423 L21.0133469,19.563 C20.9703469,19.681 20.8573469,19.761 20.7323469,19.761 L16.2993469,19.761 C16.2003469,19.761 16.1073469,19.71 16.0503469,19.627 C15.9963469,19.545 15.9843469,19.439 16.0213469,19.347 L22.5063469,3.189 C22.5523469,3.076 22.6623469,3 22.7853469,3 L26.0373469,3 C26.1603469,3 26.2713469,3.076 26.3173469,3.191 L32.7353469,19.35 C32.7733469,19.442 32.7603469,19.545 32.7063469,19.627 C32.6503469,19.71 32.5563469,19.761 32.4583469,19.761 L27.9813469,19.761 Z" id="Fill-128" fill="#1A1919"></path>
                    <path d="M75.547,3.773 C75.547,5.857 73.858,7.547 71.773,7.547 C69.689,7.547 68,5.857 68,3.773 C68,1.689 69.689,0 71.773,0 C73.858,0 75.547,1.689 75.547,3.773" id="Fill-182-Copy" fill="#79C5BB"></path>
                    <path d="M65.901,15.951 C65.901,16.476 65.476,16.901 64.95,16.901 C64.425,16.901 64,16.476 64,15.951 C64,15.426 64.425,15 64.95,15 C65.476,15 65.901,15.426 65.901,15.951" id="Fill-183-Copy" fill="#79C5BB"></path>
                    <path d="M70.901,9.952 C70.901,10.476 70.476,10.902 69.951,10.902 C69.425,10.902 69,10.476 69,9.952 C69,9.426 69.425,9 69.951,9 C70.476,9 70.901,9.426 70.901,9.952" id="Fill-184-Copy" fill="#79C5BB"></path>
                    <path d="M65.824,5.912 C65.824,6.416 65.416,6.825 64.912,6.825 C64.408,6.825 64,6.416 64,5.912 C64,5.409 64.408,5 64.912,5 C65.416,5 65.824,5.409 65.824,5.912" id="Fill-185-Copy" fill="#FBD020"></path>
                    <path d="M76.919,10.959 C76.919,12.041 76.042,12.918 74.96,12.918 C73.877,12.918 73,12.041 73,10.959 C73,9.877 73.877,9 74.96,9 C76.042,9 76.919,9.877 76.919,10.959" id="Fill-186-Copy" fill="#FBD020"></path>
                    <path d="M65.308,9.654 C65.308,11.119 64.12,12.308 62.654,12.308 C61.188,12.308 60,11.119 60,9.654 C60,8.189 61.188,7 62.654,7 C64.12,7 65.308,8.189 65.308,9.654" id="Fill-187-Copy" fill="#FBD020"></path>
                    <path d="M74.179,16.59 C74.179,18.572 72.572,20.179 70.59,20.179 C68.607,20.179 67,18.572 67,16.59 C67,14.608 68.607,13 70.59,13 C72.572,13 74.179,14.608 74.179,16.59" id="Fill-188-Copy" fill="#E77D8B"></path>
                    <path d="M68.715,8.13520516 C69.328,8.10820516 70.161,8.15620516 70.163,7.14820516 C70.161,6.20820516 69.399,6.25420516 68.715,6.22520516 L67.552,6.22520516 L67.552,8.13520516 L68.715,8.13520516 Z M67.252,8.73620516 C67.174,8.73620516 67.097,8.70520516 67.041,8.64920516 C66.984,8.59220516 66.953,8.51520516 66.953,8.43620516 L66.953,5.92420516 C66.953,5.84720516 66.984,5.77020516 67.041,5.71120516 C67.095,5.65820516 67.172,5.62420516 67.252,5.62420516 L68.715,5.62420516 C69.034,5.62820516 69.506,5.61820516 69.944,5.80420516 C70.39,5.97720516 70.779,6.44320516 70.762,7.14820516 C70.777,7.88720516 70.376,8.36720516 69.923,8.55020516 C69.476,8.74320516 69.003,8.73420516 68.715,8.73620516 L67.252,8.73620516 Z M69.197,14.5332052 C69.453,14.5352052 69.927,14.5282052 70.299,14.3642052 C70.666,14.1902052 70.935,13.9552052 70.948,13.2852052 C70.933,12.6922052 70.706,12.4982052 70.355,12.3382052 C70,12.1932052 69.52,12.1842052 69.197,12.1862052 L67.552,12.1862052 L67.552,14.5332052 L69.197,14.5332052 Z M67.252,15.1332052 C67.174,15.1332052 67.097,15.1022052 67.041,15.0452052 C66.984,14.9902052 66.953,14.9132052 66.953,14.8352052 L66.953,11.8862052 C66.953,11.8082052 66.984,11.7312052 67.041,11.6732052 C67.095,11.6192052 67.172,11.5852052 67.252,11.5852052 L69.197,11.5852052 C69.527,11.5872052 70.073,11.5812052 70.58,11.7842052 C71.092,11.9732052 71.564,12.4792052 71.549,13.2852052 C71.53,15.1272052 69.681,15.1312052 69.197,15.1332052 L67.252,15.1332052 Z M63.599,18.1582052 L68.431,18.1582052 C71.171,18.1502052 72.088,18.0202052 73.526,16.8292052 C74.415,16.1062052 74.903,14.7572052 74.901,13.5452052 C74.886,12.8832052 74.865,10.9382052 72.436,10.0722052 C72.325,10.0332052 72.248,9.93220516 72.238,9.81520516 C72.227,9.69920516 72.286,9.58520516 72.388,9.52720516 C73.598,8.84020516 74.11,7.69320516 74.114,6.53720516 C74.114,5.64520516 73.886,4.74920516 73.231,4.07420516 C72.119,2.85020516 71.01,2.61020516 68.279,2.60020516 L63.601,2.60020516 L63.599,18.1582052 Z M68.431,18.7592052 L63.301,18.7592052 C63.221,18.7592052 63.144,18.7252052 63.088,18.6712052 C63.031,18.6152052 63,18.5382052 63,18.4582052 L63,2.30120516 C63,2.22220516 63.031,2.14520516 63.088,2.08820516 C63.144,2.03220516 63.221,2.00020516 63.301,2.00020516 L68.279,2.00020516 C71.006,1.99120516 72.43,2.27420516 73.668,3.66320516 C74.461,4.48020516 74.715,5.54920516 74.715,6.53720516 C74.717,7.70420516 74.24,8.91020516 73.175,9.72720516 C75.419,10.7972052 75.513,12.9022052 75.5,13.5452052 C75.498,14.9082052 74.98,16.4012052 73.907,17.2912052 C72.413,18.5562052 71.214,18.7592052 68.638,18.7592052 C68.571,18.7592052 68.501,18.7592052 68.431,18.7592052 Z" id="Fill-189-Copy" fill="#1A1919"></path>
                </g>
            </g>
        </g>
    </g>
</svg>