<?xml version="1.0" encoding="UTF-8"?>
<svg width="216px" height="231px" viewBox="0 0 216 231" version="1.1" xmlns="http://www.w3.org/2000/svg" xmlns:xlink="http://www.w3.org/1999/xlink">
    <!-- Generator: Sketch 51.3 (57544) - http://www.bohemiancoding.com/sketch -->
    <title>Group 29</title>
    <desc>Created with Sketch.</desc>
    <defs>
        <path d="M0.997303996,79.234 C-0.363158536,65.7418804 0.191825288,45.662079 10.742,27.155 C28.793,-4.51 55.338,0.842 55.338,0.842 L62.887,7.646 C87.132,25.321 90.965,48.99 90.965,48.99 L90.965,68.164 L86.445,67.957 C76.354,63.945 61.996,37.069 61.996,37.069 C50.3933656,51.049042 49.7395814,68.6479225 50.6977455,79.234 L0.997303996,79.234 Z" id="path-1"></path>
        <linearGradient x1="56.1028678%" y1="71.8393671%" x2="-2.51883658%" y2="127.193705%" id="linearGradient-3">
            <stop stop-color="#F6EC50" offset="0%"></stop>
            <stop stop-color="#445192" offset="100%"></stop>
        </linearGradient>
        <path d="M20.491,12.297 C20.744,10.966 20.838,7.854 17.628,4.061 C13.333,-1.015 7.823,1.573 7.823,1.573 C2.941,4.307 0.879,13.233 0.879,13.233 L6.041,10.479 C6.822,12.75 14.445,15.198 14.445,15.198 L14.488,15.182 C14.562,20.12 14.442,34.521 10.94,44.537 C9.568,48.46 6.778,55.75 15.991,68.244 L21.068,68.037 C21.068,68.037 32.442,48.728 20.491,12.297" id="path-4"></path>
        <linearGradient x1="0%" y1="49.9990224%" x2="100.001241%" y2="49.9990224%" id="linearGradient-6">
            <stop stop-color="#F0B273" offset="0%"></stop>
            <stop stop-color="#E4725C" offset="100%"></stop>
        </linearGradient>
        <path d="M15.688,1.027 L1.552,20.986 C0.633,22.284 0.758,24.043 1.845,25.204 C3.75,27.237 6.961,30.101 10.423,30.755 C11.498,30.958 12.592,30.507 13.189,29.591 L20.707,18.051 C20.707,18.051 22.146,-0.076 15.688,1.027" id="path-7"></path>
        <linearGradient x1="-30.5194517%" y1="86.6351213%" x2="115.904287%" y2="30.0095964%" id="linearGradient-9">
            <stop stop-color="#F0B273" offset="0%"></stop>
            <stop stop-color="#E4725C" offset="100%"></stop>
        </linearGradient>
        <path d="M27.308,9.543 C27.202,9.921 12.174,31.076 12.174,31.076 L0.278,22.238 L11.542,0.072 C11.542,0.072 29.08,3.216 27.308,9.543" id="path-10"></path>
        <linearGradient x1="78.6499436%" y1="26.0030964%" x2="-66.0213213%" y2="122.424203%" id="linearGradient-12">
            <stop stop-color="#F0B273" offset="0%"></stop>
            <stop stop-color="#E4725C" offset="100%"></stop>
        </linearGradient>
        <path d="M17.062,15.801 L10.498,26.547 C10.355,26.781 10.25,27.033 10.184,27.299 C9.889,28.485 9.449,31.612 12.853,32.093 C15.432,32.457 17.828,32.826 19.509,33.64 C20.989,34.357 21.433,36.261 20.466,37.592 C19.018,39.587 16.469,42.935 13.75,45.747 C12.768,46.763 11.161,46.84 10.09,45.918 C7.843,43.985 4.061,40.506 1.445,36.922 C0.865,36.128 0.788,35.075 1.222,34.192 C2.857,30.871 6.886,22.589 7.684,20.022 C8.417,17.664 6.449,15.115 5.327,13.906 C4.806,13.345 4.551,12.593 4.627,11.831 C4.807,10.044 5.706,7.145 9.668,7.255 C11.046,7.293 12.21,6.31 12.416,4.947 C12.714,2.976 13.836,0.673 17.448,0.656 C21.276,0.637 23.047,3.219 23.85,5.26 C24.241,6.255 25.236,6.814 26.305,6.845 C26.617,6.854 26.933,6.963 27.224,7.238 C28.172,8.134 29.561,8.317 30.618,7.553 C32.181,6.423 34.465,5.721 37.267,7.581 C42.742,11.215 40.51,18.076 37.247,21.231 C33.983,24.387 28.271,20.109 25.938,16.759 C24.321,14.438 20.996,14.36 19.106,14.531 C18.261,14.608 17.504,15.077 17.062,15.801" id="path-13"></path>
        <linearGradient x1="3.20387903%" y1="42.2057378%" x2="89.5824074%" y2="63.0956685%" id="linearGradient-15">
            <stop stop-color="#29316B" offset="0%"></stop>
            <stop stop-color="#110E29" offset="100%"></stop>
        </linearGradient>
        <path d="M4.232,11.127 C4.232,11.127 9.684,5.384 7.92,2.608 C6.156,-0.168 2.067,-0.94 0.699,4.361 C-1.004,10.955 4.232,11.127 4.232,11.127" id="path-16"></path>
        <linearGradient x1="-317.418551%" y1="205.591661%" x2="56.6353165%" y2="45.0492758%" id="linearGradient-18">
            <stop stop-color="#F0B273" offset="0%"></stop>
            <stop stop-color="#E4725C" offset="100%"></stop>
        </linearGradient>
        <path d="M36.569,2.741 C36.569,2.741 8.075,20.914 1.837,42.012 C-4.4,63.111 9.561,67.262 22.853,69.131 L23.854,53.02 C23.854,53.02 14.542,53.02 20.482,44.214 C26.422,35.407 42.385,29.537 42.385,29.537 C42.385,29.537 82.83,-8.625 36.569,2.741" id="path-19"></path>
        <linearGradient x1="100%" y1="-25.3214019%" x2="-74.7921182%" y2="192.488506%" id="linearGradient-21">
            <stop stop-color="#F6EC50" offset="0%"></stop>
            <stop stop-color="#445192" offset="100%"></stop>
        </linearGradient>
        <path d="M5.854,24.387 C5.69,24.387 1.842,24.359 0.544,21.918 C-0.341,20.253 0.208,17.928 2.178,15.009 C8.116,6.205 23.602,0.434 24.258,0.192 C24.448,0.122 24.66,0.22 24.729,0.41 C24.799,0.6 24.702,0.811 24.512,0.881 C24.353,0.939 8.591,6.813 2.786,15.419 C0.981,18.095 0.445,20.165 1.191,21.572 C2.281,23.624 5.818,23.653 5.854,23.653 C6.056,23.653 6.221,23.818 6.221,24.021 C6.22,24.223 6.056,24.387 5.854,24.387" id="path-22"></path>
        <linearGradient x1="80.0642308%" y1="-10.1677393%" x2="-86.8737923%" y2="258.771202%" id="linearGradient-24">
            <stop stop-color="#69C6E4" offset="0%"></stop>
            <stop stop-color="#445192" offset="100%"></stop>
        </linearGradient>
        <path d="M1.853,15.131 C1.853,15.131 -2.309,8.251 3.173,0.031 L39.971,6.123 C39.971,6.123 57.585,3.143 58.427,3.203 C59.27,3.264 70.766,10.345 70.766,10.345 C70.766,10.345 70.38,11.166 67.644,11.014 C64.908,10.863 66.704,11.345 66.704,11.345 L66.605,12.727 C66.605,12.727 64.701,13.164 63.173,11.539 C61.646,9.914 57.399,9.126 57.399,9.126 C57.399,9.126 48.374,15.796 39.508,12.569 L1.853,15.131" id="path-25"></path>
        <linearGradient x1="49.1664798%" y1="115.741722%" x2="50.7878987%" y2="10.3980132%" id="linearGradient-27">
            <stop stop-color="#F0B273" offset="0%"></stop>
            <stop stop-color="#E4725C" offset="100%"></stop>
        </linearGradient>
        <path d="M0.000482267359,7.234 L2.225,1.937 C2.702,0.801 3.986,0.277 5.096,0.765 C6.205,1.253 6.717,2.57 6.24,3.706 L4.75838804,7.234 L0.000482267359,7.234 Z" id="path-28"></path>
        <linearGradient x1="48.3978847%" y1="124.472372%" x2="77.3538367%" y2="124.472372%" id="linearGradient-30">
            <stop stop-color="#ABDADA" offset="0%"></stop>
            <stop stop-color="#ABDAD9" offset="100%"></stop>
        </linearGradient>
        <path d="M1.66661196,7.234 L0.185,3.706 C-0.292,2.57 0.22,1.253 1.329,0.765 C2.437,0.276 3.723,0.8 4.2,1.937 L6.42451773,7.234 L1.66661196,7.234 Z" id="path-31"></path>
        <linearGradient x1="51.7416177%" y1="124.472372%" x2="80.6975698%" y2="124.472372%" id="linearGradient-33">
            <stop stop-color="#ABDADA" offset="0%"></stop>
            <stop stop-color="#ABDAD9" offset="100%"></stop>
        </linearGradient>
        <path d="M109.455,3.677 C109.515,3 109.433,2.301 109.233,1.769 C109.033,1.238 108.735,0.93 108.42,0.93 L1.872,0.93 C1.458,0.93 1.073,1.392 0.85,2.155 C0.627,2.919 0.597,3.878 0.771,4.701 L1.925,10.177 C2.189,11.431 2.763,12.233 3.393,12.233 L107.689,12.233 C108.275,12.233 108.78,11.322 108.891,10.061 L109.455,3.677" id="path-34"></path>
        <linearGradient x1="94.3911934%" y1="-208.705653%" x2="-54.654773%" y2="654.81819%" id="linearGradient-36">
            <stop stop-color="#B82762" offset="0%"></stop>
            <stop stop-color="#40285A" offset="100%"></stop>
        </linearGradient>
    </defs>
    <g id="Symbols" stroke="none" stroke-width="1" fill="none" fill-rule="evenodd">
        <g id="Group-29">
            <g id="Group-29-Copy-3" transform="translate(25.000000, 91.000000)">
                <g id="Group-373" transform="translate(8.000000, 37.000000)">
                    <mask id="mask-2" fill="white">
                        <use xlink:href="#path-1"></use>
                    </mask>
                    <g id="Clip-372"></g>
                    <polygon id="Fill-371" fill="url(#linearGradient-3)" mask="url(#mask-2)" points="-17.715 79.234 155.687 79.234 155.687 -125.74 -17.715 -125.74"></polygon>
                </g>
                <g id="Group-376" transform="translate(80.000000, 37.000000)">
                    <mask id="mask-5" fill="white">
                        <use xlink:href="#path-4"></use>
                    </mask>
                    <g id="Clip-375"></g>
                    <path d="M20.491,12.297 C20.744,10.966 20.838,7.854 17.628,4.061 C13.333,-1.015 7.823,1.573 7.823,1.573 C2.941,4.307 0.879,13.233 0.879,13.233 L6.041,10.479 C6.822,12.75 14.445,15.198 14.445,15.198 L14.488,15.182 C14.562,20.12 14.442,34.521 10.94,44.537 C9.568,48.46 6.778,55.75 15.991,68.244 L21.068,68.037 C21.068,68.037 32.442,48.728 20.491,12.297" id="Fill-374" fill="url(#linearGradient-6)" mask="url(#mask-5)"></path>
                </g>
                <g id="Group-379" transform="translate(59.000000, 19.000000)">
                    <mask id="mask-8" fill="white">
                        <use xlink:href="#path-7"></use>
                    </mask>
                    <g id="Clip-378"></g>
                    <path d="M15.688,1.027 L1.552,20.986 C0.633,22.284 0.758,24.043 1.845,25.204 C3.75,27.237 6.961,30.101 10.423,30.755 C11.498,30.958 12.592,30.507 13.189,29.591 L20.707,18.051 C20.707,18.051 22.146,-0.076 15.688,1.027" id="Fill-377" fill="url(#linearGradient-9)" mask="url(#mask-8)"></path>
                </g>
                <g id="Group-382" transform="translate(76.000000, 9.000000)">
                    <mask id="mask-11" fill="white">
                        <use xlink:href="#path-10"></use>
                    </mask>
                    <g id="Clip-381"></g>
                    <path d="M27.308,9.543 C27.202,9.921 12.174,31.076 12.174,31.076 L0.278,22.238 L11.542,0.072 C11.542,0.072 29.08,3.216 27.308,9.543" id="Fill-380" fill="url(#linearGradient-12)" mask="url(#mask-11)"></path>
                </g>
                <g id="Group-385" transform="translate(71.000000, 0.000000)">
                    <mask id="mask-14" fill="white">
                        <use xlink:href="#path-13"></use>
                    </mask>
                    <g id="Clip-384"></g>
                    <path d="M17.062,15.801 L10.498,26.547 C10.355,26.781 10.25,27.033 10.184,27.299 C9.889,28.485 9.449,31.612 12.853,32.093 C15.432,32.457 17.828,32.826 19.509,33.64 C20.989,34.357 21.433,36.261 20.466,37.592 C19.018,39.587 16.469,42.935 13.75,45.747 C12.768,46.763 11.161,46.84 10.09,45.918 C7.843,43.985 4.061,40.506 1.445,36.922 C0.865,36.128 0.788,35.075 1.222,34.192 C2.857,30.871 6.886,22.589 7.684,20.022 C8.417,17.664 6.449,15.115 5.327,13.906 C4.806,13.345 4.551,12.593 4.627,11.831 C4.807,10.044 5.706,7.145 9.668,7.255 C11.046,7.293 12.21,6.31 12.416,4.947 C12.714,2.976 13.836,0.673 17.448,0.656 C21.276,0.637 23.047,3.219 23.85,5.26 C24.241,6.255 25.236,6.814 26.305,6.845 C26.617,6.854 26.933,6.963 27.224,7.238 C28.172,8.134 29.561,8.317 30.618,7.553 C32.181,6.423 34.465,5.721 37.267,7.581 C42.742,11.215 40.51,18.076 37.247,21.231 C33.983,24.387 28.271,20.109 25.938,16.759 C24.321,14.438 20.996,14.36 19.106,14.531 C18.261,14.608 17.504,15.077 17.062,15.801" id="Fill-383" fill="url(#linearGradient-15)" mask="url(#mask-14)"></path>
                </g>
                <g id="Group-388" transform="translate(72.000000, 13.000000)">
                    <mask id="mask-17" fill="white">
                        <use xlink:href="#path-16"></use>
                    </mask>
                    <g id="Clip-387"></g>
                    <path d="M4.232,11.127 C4.232,11.127 9.684,5.384 7.92,2.608 C6.156,-0.168 2.067,-0.94 0.699,4.361 C-1.004,10.955 4.232,11.127 4.232,11.127" id="Fill-386" fill="url(#linearGradient-18)" mask="url(#mask-17)"></path>
                </g>
                <g id="Group-391" transform="translate(0.000000, 38.000000)">
                    <mask id="mask-20" fill="white">
                        <use xlink:href="#path-19"></use>
                    </mask>
                    <g id="Clip-390"></g>
                    <path d="M36.569,2.741 C36.569,2.741 8.075,20.914 1.837,42.012 C-4.4,63.111 9.561,67.262 22.853,69.131 L23.854,53.02 C23.854,53.02 14.542,53.02 20.482,44.214 C26.422,35.407 42.385,29.537 42.385,29.537 C42.385,29.537 82.83,-8.625 36.569,2.741" id="Fill-389" fill="url(#linearGradient-21)" mask="url(#mask-20)"></path>
                </g>
                <g id="Group-394" transform="translate(18.000000, 67.000000)">
                    <mask id="mask-23" fill="white">
                        <use xlink:href="#path-22"></use>
                    </mask>
                    <g id="Clip-393"></g>
                    <path d="M5.854,24.387 C5.69,24.387 1.842,24.359 0.544,21.918 C-0.341,20.253 0.208,17.928 2.178,15.009 C8.116,6.205 23.602,0.434 24.258,0.192 C24.448,0.122 24.66,0.22 24.729,0.41 C24.799,0.6 24.702,0.811 24.512,0.881 C24.353,0.939 8.591,6.813 2.786,15.419 C0.981,18.095 0.445,20.165 1.191,21.572 C2.281,23.624 5.818,23.653 5.854,23.653 C6.056,23.653 6.221,23.818 6.221,24.021 C6.22,24.223 6.056,24.387 5.854,24.387" id="Fill-392" fill="url(#linearGradient-24)" mask="url(#mask-23)"></path>
                </g>
                <g id="Group-397" transform="translate(21.000000, 92.000000)">
                    <mask id="mask-26" fill="white">
                        <use xlink:href="#path-25"></use>
                    </mask>
                    <g id="Clip-396"></g>
                    <path d="M1.853,15.131 C1.853,15.131 -2.309,8.251 3.173,0.031 L39.971,6.123 C39.971,6.123 57.585,3.143 58.427,3.203 C59.27,3.264 70.766,10.345 70.766,10.345 C70.766,10.345 70.38,11.166 67.644,11.014 C64.908,10.863 66.704,11.345 66.704,11.345 L66.605,12.727 C66.605,12.727 64.701,13.164 63.173,11.539 C61.646,9.914 57.399,9.126 57.399,9.126 C57.399,9.126 48.374,15.796 39.508,12.569 L1.853,15.131" id="Fill-395" fill="url(#linearGradient-27)" mask="url(#mask-26)"></path>
                </g>
                <g id="Group-400" transform="translate(118.000000, 109.000000)">
                    <mask id="mask-29" fill="white">
                        <use xlink:href="#path-28"></use>
                    </mask>
                    <g id="Clip-399"></g>
                    <polygon id="Fill-398" fill="url(#linearGradient-30)" mask="url(#mask-29)" points="-127.715 7.234 45.687 7.234 45.687 -197.74 -127.715 -197.74"></polygon>
                </g>
                <g id="Group-403" transform="translate(80.000000, 109.000000)">
                    <mask id="mask-32" fill="white">
                        <use xlink:href="#path-31"></use>
                    </mask>
                    <g id="Clip-402"></g>
                    <polygon id="Fill-401" fill="url(#linearGradient-33)" mask="url(#mask-32)" points="-89.715 7.234 83.687 7.234 83.687 -197.74 -89.715 -197.74"></polygon>
                </g>
                <g id="Group-406" transform="translate(40.000000, 104.000000)">
                    <mask id="mask-35" fill="white">
                        <use xlink:href="#path-34"></use>
                    </mask>
                    <g id="Clip-405"></g>
                    <path d="M109.455,3.677 C109.515,3 109.433,2.301 109.233,1.769 C109.033,1.238 108.735,0.93 108.42,0.93 L1.872,0.93 C1.458,0.93 1.073,1.392 0.85,2.155 C0.627,2.919 0.597,3.878 0.771,4.701 L1.925,10.177 C2.189,11.431 2.763,12.233 3.393,12.233 L107.689,12.233 C108.275,12.233 108.78,11.322 108.891,10.061 L109.455,3.677" id="Fill-404" fill="url(#linearGradient-36)" mask="url(#mask-35)"></path>
                </g>
            </g>
            <rect id="Rectangle-5-Copy-2" stroke-opacity="0.053442029" stroke="#FFFFFF" x="0.5" y="0.5" width="215" height="230"></rect>
        </g>
    </g>
</svg>