<?xml version="1.0" encoding="UTF-8"?>
<svg width="216px" height="231px" viewBox="0 0 216 231" version="1.1" xmlns="http://www.w3.org/2000/svg" xmlns:xlink="http://www.w3.org/1999/xlink">
    <!-- Generator: Sketch 51.3 (57544) - http://www.bohemiancoding.com/sketch -->
    <title>Group 31</title>
    <desc>Created with Sketch.</desc>
    <defs>
        <linearGradient x1="98.2574956%" y1="-63.8959024%" x2="-27.624995%" y2="252.11851%" id="linearGradient-1">
            <stop stop-color="#69C6E4" offset="0%"></stop>
            <stop stop-color="#445192" offset="100%"></stop>
        </linearGradient>
        <linearGradient x1="103.196957%" y1="-75.5533972%" x2="-35.5700607%" y2="272.807793%" id="linearGradient-2">
            <stop stop-color="#AFDDE9" offset="0%"></stop>
            <stop stop-color="#9796BE" offset="100%"></stop>
        </linearGradient>
        <linearGradient x1="696.561507%" y1="-1170.78947%" x2="-494.955177%" y2="1071.83932%" id="linearGradient-3">
            <stop stop-color="#69C6E4" offset="0%"></stop>
            <stop stop-color="#445192" offset="100%"></stop>
        </linearGradient>
        <linearGradient x1="1624.72874%" y1="-2741.76898%" x2="-1250.03929%" y2="2361.74389%" id="linearGradient-4">
            <stop stop-color="#69C6E4" offset="0%"></stop>
            <stop stop-color="#445192" offset="100%"></stop>
        </linearGradient>
        <path d="M47.01,76.808 C38.416,76.808 37.448,71.822 36.194,66.836 C34.941,61.85 33.401,56.864 23.657,56.864 C21.15,56.864 18.1,57.194 14.373,57.939 C11.585,58.496 9.252,58.756 7.331,58.756 C-13.558,58.756 14.397,28.049 38.616,15.457 C59.46,4.62 72.293,0.764 80.584,0.764 C90.812,0.764 94.129,6.633 97.051,12.501 C99.974,18.37 102.501,24.239 111.152,24.239 C111.829,24.239 112.545,24.203 113.3,24.128 C113.858,24.073 114.468,24.044 115.114,24.044 C124.266,24.044 140.693,29.892 121.183,50.109 C100.294,71.755 68.369,76.153 47.745,76.796 C47.493,76.804 47.249,76.808 47.01,76.808 M27.51,55.186 C36.35,55.186 37.747,59.708 38.884,64.231 C40.021,68.754 40.898,73.277 48.695,73.277 C48.912,73.277 49.133,73.274 49.361,73.267 C68.071,72.684 97.031,68.693 115.981,49.058 C133.68,30.717 118.777,25.413 110.475,25.413 C109.889,25.413 109.337,25.439 108.83,25.489 C108.145,25.557 107.496,25.59 106.882,25.59 C99.034,25.59 96.741,20.266 94.09,14.942 C91.439,9.618 88.43,4.294 79.152,4.294 C71.631,4.294 59.99,7.792 41.08,17.624 C19.11,29.046 -6.249,56.901 12.7,56.901 C14.443,56.901 16.559,56.666 19.088,56.161 C22.469,55.485 25.236,55.186 27.51,55.186" id="path-5"></path>
        <path d="M42.695,69.277 C34.898,69.277 34.021,64.754 32.884,60.231 C31.747,55.708 30.35,51.186 21.51,51.186 C19.236,51.186 16.469,51.485 13.088,52.161 C10.559,52.666 8.443,52.901 6.7,52.901 C-12.249,52.901 13.11,25.046 35.08,13.624 C53.99,3.792 65.631,0.294 73.152,0.294 C82.43,0.294 85.439,5.618 88.09,10.942 C90.741,16.266 93.034,21.59 100.882,21.59 C101.496,21.59 102.145,21.557 102.83,21.489 C103.337,21.439 103.889,21.413 104.475,21.413 C112.777,21.413 127.68,26.717 109.981,45.058 C91.031,64.693 62.071,68.684 43.361,69.267 C43.133,69.274 42.912,69.277 42.695,69.277" id="path-7"></path>
        <path d="M14.813,4.922 C14.77,7.284 13.031,11.162 9.128,11.09 C5.224,11.018 0.633,7.023 0.677,4.661 C0.72,2.299 3.92,0.442 7.824,0.514 C11.728,0.586 14.857,2.559 14.813,4.922" id="path-9"></path>
        <path d="M6.673,3.443 C6.652,4.587 5.646,5.497 4.426,5.474 C3.206,5.452 0.793,4.235 0.814,3.091 C0.835,1.947 2.348,0.804 3.568,0.826 C4.789,0.849 6.695,2.299 6.673,3.443" id="path-11"></path>
    </defs>
    <g id="Symbols" stroke="none" stroke-width="1" fill="none" fill-rule="evenodd">
        <g id="Group-31">
            <g id="Group-5" transform="translate(25.000000, 13.000000)">
                <g id="Group-409">
                    <g id="Group-13">
                        <path d="M47.01,76.808 C38.416,76.808 37.448,71.822 36.194,66.836 C34.941,61.85 33.401,56.864 23.657,56.864 C21.15,56.864 18.1,57.194 14.373,57.939 C11.585,58.496 9.252,58.756 7.331,58.756 C-13.558,58.756 14.397,28.049 38.616,15.457 C59.46,4.62 72.293,0.764 80.584,0.764 C90.812,0.764 94.129,6.633 97.051,12.501 C99.974,18.37 102.501,24.239 111.152,24.239 C111.829,24.239 112.545,24.203 113.3,24.128 C113.858,24.073 114.468,24.044 115.114,24.044 C124.266,24.044 140.693,29.892 121.183,50.109 C100.294,71.755 68.369,76.153 47.745,76.796 C47.493,76.804 47.249,76.808 47.01,76.808 M27.51,55.186 C36.35,55.186 37.747,59.708 38.884,64.231 C40.021,68.754 40.898,73.277 48.695,73.277 C48.912,73.277 49.133,73.274 49.361,73.267 C68.071,72.684 97.031,68.693 115.981,49.058 C133.68,30.717 118.777,25.413 110.475,25.413 C109.889,25.413 109.337,25.439 108.83,25.489 C108.145,25.557 107.496,25.59 106.882,25.59 C99.034,25.59 96.741,20.266 94.09,14.942 C91.439,9.618 88.43,4.294 79.152,4.294 C71.631,4.294 59.99,7.792 41.08,17.624 C19.11,29.046 -6.249,56.901 12.7,56.901 C14.443,56.901 16.559,56.666 19.088,56.161 C22.469,55.485 25.236,55.186 27.51,55.186" id="Fill-407" fill="url(#linearGradient-1)"></path>
                        <path d="M48.695,73.277 C40.898,73.277 40.021,68.754 38.884,64.231 C37.747,59.708 36.35,55.186 27.51,55.186 C25.236,55.186 22.469,55.485 19.088,56.161 C16.559,56.666 14.443,56.901 12.7,56.901 C-6.249,56.901 19.11,29.046 41.08,17.624 C59.99,7.792 71.631,4.294 79.152,4.294 C88.43,4.294 91.439,9.618 94.09,14.942 C96.741,20.266 99.034,25.59 106.882,25.59 C107.496,25.59 108.145,25.557 108.83,25.489 C109.337,25.439 109.889,25.413 110.475,25.413 C118.777,25.413 133.68,30.717 115.981,49.058 C97.031,68.693 68.071,72.684 49.361,73.267 C49.133,73.274 48.912,73.277 48.695,73.277" id="Fill-410" fill="url(#linearGradient-2)"></path>
                        <path d="M48.813,83.922 C48.77,86.284 47.031,90.162 43.128,90.09 C39.224,90.018 34.633,86.023 34.677,83.661 C34.72,81.299 37.92,79.442 41.824,79.514 C45.728,79.586 48.857,81.559 48.813,83.922" id="Fill-413" fill="url(#linearGradient-3)"></path>
                        <path d="M54.673,93.443 C54.652,94.587 53.646,95.497 52.426,95.474 C51.206,95.452 48.793,94.235 48.814,93.091 C48.835,91.947 50.348,90.804 51.568,90.826 C52.789,90.849 54.695,92.299 54.673,93.443" id="Fill-416" fill="url(#linearGradient-4)"></path>
                    </g>
                    <mask id="mask-6" fill="white">
                        <use xlink:href="#path-5"></use>
                    </mask>
                    <g id="Clip-408"></g>
                </g>
                <g id="Group-412" transform="translate(6.000000, 4.000000)">
                    <mask id="mask-8" fill="white">
                        <use xlink:href="#path-7"></use>
                    </mask>
                    <g id="Clip-411"></g>
                </g>
                <g id="Group-415" transform="translate(34.000000, 79.000000)">
                    <mask id="mask-10" fill="white">
                        <use xlink:href="#path-9"></use>
                    </mask>
                    <g id="Clip-414"></g>
                </g>
                <g id="Group-418" transform="translate(48.000000, 90.000000)">
                    <mask id="mask-12" fill="white">
                        <use xlink:href="#path-11"></use>
                    </mask>
                    <g id="Clip-417"></g>
                </g>
            </g>
            <rect id="Rectangle-5" stroke-opacity="0.048828125" stroke="#FFFFFF" x="0.5" y="0.5" width="215" height="230"></rect>
        </g>
    </g>
</svg>